# xmcd CD database file
#
# Track frame offsets:
#	150
#	14990
#	32210
#	47147
#	64227
#	79992
#	93710
#	113298
#	128828
#	146158
#	162453
#	178828
#	191833
#	208428
#	229527
#	244603
#	259779
#
# Disc length: 3659 seconds
#
# Revision: 1
# Processed by: cddbd v1.4PL0 Copyright (c) Steve Scherf et al.
# Submitted via: CDex 1.40Release
#
DISCID=030e4911
DTITLE=Camen - Addicted To It
DYEAR=2002
DGENRE=
TTITLE0=More Than Ever
TTITLE1=Addicted To It
TTITLE2=I Wanna Be Your No. 1
TTITLE3=Say
TTITLE4=Just A Little Heartache
TTITLE5=First Love
TTITLE6=The Only Sunshine
TTITLE7=Get Off
TTITLE8=Precious Moments
TTITLE9=Alright
TTITLE10=I Never Thought
TTITLE11=Getting Funky
TTITLE12=Taste You Right
TTITLE13=The Lady By My Side
TTITLE14=I Got You And Me
TTITLE15=Love You Tonight
TTITLE16=Bonus Track
EXTD=YEAR: 2002
EXTT0=
EXTT1=
EXTT2=
EXTT3=
EXTT4=
EXTT5=
EXTT6=
EXTT7=
EXTT8=
EXTT9=
EXTT10=
EXTT11=
EXTT12=
EXTT13=
EXTT14=
EXTT15=
EXTT16=
PLAYORDER=
